<svg xmlns="http://www.w3.org/2000/svg" viewBox="0 0 1440 320"
preserveAspectRatio="none"><path fill="#5000ca" fill-opacity="1" d="M0,256L0,256L57.6,256L57.6,224L115.2,224L115.2,160L172.8,
160L172.8,320L230.4,320L230.4,256L288,256L288,128L345.6,128L345.6,96L403.2,96L403.2,0L460.8,0L460.8,128L518.4,128L518.4,0L576,
0L576,32L633.6,32L633.6,256L691.2,256L691.2,192L748.8,192L748.8,160L806.4,160L806.4,32L864,32L864,288L921.6,288L921.6,192L979.2,
192L979.2,32L1036.8,32L1036.8,192L1094.4,192L1094.4,192L1152,192L1152,64L1209.6,64L1209.6,224L1267.2,224L1267.2,64L1324.8,64L1324.8,
32L1382.4,32L1382.4,160L1440,160L1440,320L1382.4,320L1382.4,320L1324.8,320L1324.8,320L1267.2,320L1267.2,320L1209.6,320L1209.6,320L1152,
320L1152,320L1094.4,320L1094.4,320L1036.8,320L1036.8,320L979.2,320L979.2,320L921.6,320L921.6,320L864,320L864,320L806.4,320L806.4,320L748.8,
320L748.8,320L691.2,320L691.2,320L633.6,320L633.6,320L576,320L576,320L518.4,320L518.4,320L460.8,320L460.8,320L403.2,320L403.2,320L345.6,
320L345.6,320L288,320L288,320L230.4,320L230.4,320L172.8,320L172.8,320L115.2,320L115.2,320L57.6,320L57.6,320L0,320L0,320Z"></path></svg>